<mxfile host="app.diagrams.net" agent="Mozilla/5.0 (Windows NT 10.0; Win64; x64) AppleWebKit/537.36 (KHTML, like Gecko) Chrome/140.0.0.0 Safari/537.36" version="28.2.0">
  <diagram name="PÃ¡gina-1" id="Ib2m3M7Q2Sbo2l7A3zsX">
    <mxGraphModel grid="1" page="1" gridSize="10" guides="1" tooltips="1" connect="1" arrows="1" fold="1" pageScale="1" pageWidth="827" pageHeight="1169" math="0" shadow="0">
      <root>
        <mxCell id="0" />
        <mxCell id="1" parent="0" />
        <mxCell id="JdIIiNnIl6GPX5LUAa8s-1" value="Estudiante" style="rounded=0;whiteSpace=wrap;html=1;" vertex="1" parent="1">
          <mxGeometry x="30" y="150" width="100" height="50" as="geometry" />
        </mxCell>
        <mxCell id="JdIIiNnIl6GPX5LUAa8s-4" value="matricula" style="rounded=0;whiteSpace=wrap;html=1;" vertex="1" parent="1">
          <mxGeometry x="240" y="150" width="80" height="50" as="geometry" />
        </mxCell>
        <mxCell id="3AJ0iTijDM6IZOLcM9im-8" style="edgeStyle=orthogonalEdgeStyle;rounded=0;orthogonalLoop=1;jettySize=auto;html=1;exitX=0;exitY=0.5;exitDx=0;exitDy=0;" edge="1" parent="1" source="JdIIiNnIl6GPX5LUAa8s-5">
          <mxGeometry relative="1" as="geometry">
            <mxPoint x="420" y="175" as="targetPoint" />
          </mxGeometry>
        </mxCell>
        <mxCell id="JdIIiNnIl6GPX5LUAa8s-5" value="curso" style="rounded=0;whiteSpace=wrap;html=1;" vertex="1" parent="1">
          <mxGeometry x="410" y="150" width="120" height="50" as="geometry" />
        </mxCell>
        <mxCell id="JdIIiNnIl6GPX5LUAa8s-6" value="profesor" style="rounded=0;whiteSpace=wrap;html=1;" vertex="1" parent="1">
          <mxGeometry x="690" y="150" width="110" height="50" as="geometry" />
        </mxCell>
        <mxCell id="JdIIiNnIl6GPX5LUAa8s-7" value="semestre" style="rhombus;whiteSpace=wrap;html=1;" vertex="1" parent="1">
          <mxGeometry x="150" y="145" width="70" height="60" as="geometry" />
        </mxCell>
        <mxCell id="JdIIiNnIl6GPX5LUAa8s-9" value="" style="endArrow=none;html=1;rounded=0;" edge="1" parent="1">
          <mxGeometry width="50" height="50" relative="1" as="geometry">
            <mxPoint x="50" y="150" as="sourcePoint" />
            <mxPoint x="50" y="90" as="targetPoint" />
          </mxGeometry>
        </mxCell>
        <mxCell id="JdIIiNnIl6GPX5LUAa8s-10" value="" style="endArrow=none;html=1;rounded=0;" edge="1" parent="1">
          <mxGeometry width="50" height="50" relative="1" as="geometry">
            <mxPoint x="110" y="150" as="sourcePoint" />
            <mxPoint x="110" y="90" as="targetPoint" />
          </mxGeometry>
        </mxCell>
        <mxCell id="JdIIiNnIl6GPX5LUAa8s-12" value="" style="endArrow=none;html=1;rounded=0;" edge="1" parent="1">
          <mxGeometry width="50" height="50" relative="1" as="geometry">
            <mxPoint x="80" y="260" as="sourcePoint" />
            <mxPoint x="80" y="200" as="targetPoint" />
          </mxGeometry>
        </mxCell>
        <mxCell id="JdIIiNnIl6GPX5LUAa8s-13" value="" style="endArrow=none;html=1;rounded=0;" edge="1" parent="1">
          <mxGeometry width="50" height="50" relative="1" as="geometry">
            <mxPoint x="469" y="260" as="sourcePoint" />
            <mxPoint x="469" y="200" as="targetPoint" />
          </mxGeometry>
        </mxCell>
        <mxCell id="JdIIiNnIl6GPX5LUAa8s-15" value="" style="endArrow=none;html=1;rounded=0;" edge="1" parent="1">
          <mxGeometry width="50" height="50" relative="1" as="geometry">
            <mxPoint x="430" y="150" as="sourcePoint" />
            <mxPoint x="430" y="90" as="targetPoint" />
          </mxGeometry>
        </mxCell>
        <mxCell id="JdIIiNnIl6GPX5LUAa8s-16" value="" style="endArrow=none;html=1;rounded=0;" edge="1" parent="1">
          <mxGeometry width="50" height="50" relative="1" as="geometry">
            <mxPoint x="490" y="150" as="sourcePoint" />
            <mxPoint x="490" y="90" as="targetPoint" />
          </mxGeometry>
        </mxCell>
        <mxCell id="JdIIiNnIl6GPX5LUAa8s-17" value="" style="endArrow=none;html=1;rounded=0;" edge="1" parent="1">
          <mxGeometry width="50" height="50" relative="1" as="geometry">
            <mxPoint x="749" y="260" as="sourcePoint" />
            <mxPoint x="749" y="200" as="targetPoint" />
          </mxGeometry>
        </mxCell>
        <mxCell id="JdIIiNnIl6GPX5LUAa8s-18" value="" style="endArrow=none;html=1;rounded=0;" edge="1" parent="1">
          <mxGeometry width="50" height="50" relative="1" as="geometry">
            <mxPoint x="780" y="150" as="sourcePoint" />
            <mxPoint x="780" y="90" as="targetPoint" />
          </mxGeometry>
        </mxCell>
        <mxCell id="JdIIiNnIl6GPX5LUAa8s-19" value="" style="endArrow=none;html=1;rounded=0;" edge="1" parent="1">
          <mxGeometry width="50" height="50" relative="1" as="geometry">
            <mxPoint x="720" y="150" as="sourcePoint" />
            <mxPoint x="720" y="90" as="targetPoint" />
          </mxGeometry>
        </mxCell>
        <mxCell id="JdIIiNnIl6GPX5LUAa8s-26" value="id_codigo" style="ellipse;whiteSpace=wrap;html=1;" vertex="1" parent="1">
          <mxGeometry x="10" y="60" width="60" height="30" as="geometry" />
        </mxCell>
        <mxCell id="JdIIiNnIl6GPX5LUAa8s-27" value="nombre" style="ellipse;whiteSpace=wrap;html=1;" vertex="1" parent="1">
          <mxGeometry x="80" y="60" width="70" height="30" as="geometry" />
        </mxCell>
        <mxCell id="JdIIiNnIl6GPX5LUAa8s-28" value="carrera" style="ellipse;whiteSpace=wrap;html=1;" vertex="1" parent="1">
          <mxGeometry x="45" y="260" width="70" height="30" as="geometry" />
        </mxCell>
        <mxCell id="JdIIiNnIl6GPX5LUAa8s-31" value="credito" style="ellipse;whiteSpace=wrap;html=1;" vertex="1" parent="1">
          <mxGeometry x="435" y="260" width="70" height="30" as="geometry" />
        </mxCell>
        <mxCell id="JdIIiNnIl6GPX5LUAa8s-32" value="area_academica" style="ellipse;whiteSpace=wrap;html=1;" vertex="1" parent="1">
          <mxGeometry x="700" y="260" width="100" height="30" as="geometry" />
        </mxCell>
        <mxCell id="JdIIiNnIl6GPX5LUAa8s-33" value="nombre" style="ellipse;whiteSpace=wrap;html=1;" vertex="1" parent="1">
          <mxGeometry x="470" y="60" width="70" height="30" as="geometry" />
        </mxCell>
        <mxCell id="JdIIiNnIl6GPX5LUAa8s-34" value="nombre" style="ellipse;whiteSpace=wrap;html=1;" vertex="1" parent="1">
          <mxGeometry x="750" y="60" width="70" height="30" as="geometry" />
        </mxCell>
        <mxCell id="JdIIiNnIl6GPX5LUAa8s-35" value="nu_codigo" style="ellipse;whiteSpace=wrap;html=1;" vertex="1" parent="1">
          <mxGeometry x="390" y="60" width="70" height="30" as="geometry" />
        </mxCell>
        <mxCell id="JdIIiNnIl6GPX5LUAa8s-38" value="cc_codigo" style="ellipse;whiteSpace=wrap;html=1;" vertex="1" parent="1">
          <mxGeometry x="680" y="60" width="70" height="30" as="geometry" />
        </mxCell>
        <mxCell id="3AJ0iTijDM6IZOLcM9im-12" value="" style="endArrow=none;html=1;rounded=0;" edge="1" parent="1">
          <mxGeometry width="50" height="50" relative="1" as="geometry">
            <mxPoint x="130" y="174.5" as="sourcePoint" />
            <mxPoint x="150" y="174.5" as="targetPoint" />
          </mxGeometry>
        </mxCell>
        <mxCell id="3AJ0iTijDM6IZOLcM9im-17" value="dicta" style="rhombus;whiteSpace=wrap;html=1;" vertex="1" parent="1">
          <mxGeometry x="570" y="145" width="80" height="60" as="geometry" />
        </mxCell>
        <mxCell id="3AJ0iTijDM6IZOLcM9im-21" value="" style="endArrow=none;html=1;rounded=0;exitX=1;exitY=0.5;exitDx=0;exitDy=0;" edge="1" parent="1">
          <mxGeometry width="50" height="50" relative="1" as="geometry">
            <mxPoint x="530" y="174.5" as="sourcePoint" />
            <mxPoint x="570" y="175" as="targetPoint" />
          </mxGeometry>
        </mxCell>
        <mxCell id="3AJ0iTijDM6IZOLcM9im-29" value="" style="endArrow=none;html=1;rounded=0;" edge="1" parent="1">
          <mxGeometry width="50" height="50" relative="1" as="geometry">
            <mxPoint x="220" y="174.5" as="sourcePoint" />
            <mxPoint x="240" y="174.5" as="targetPoint" />
          </mxGeometry>
        </mxCell>
        <mxCell id="3AJ0iTijDM6IZOLcM9im-34" value="" style="endArrow=none;html=1;rounded=0;exitX=1;exitY=0.5;exitDx=0;exitDy=0;" edge="1" parent="1">
          <mxGeometry width="50" height="50" relative="1" as="geometry">
            <mxPoint x="650" y="174.5" as="sourcePoint" />
            <mxPoint x="690" y="175" as="targetPoint" />
          </mxGeometry>
        </mxCell>
        <mxCell id="3AJ0iTijDM6IZOLcM9im-35" value="contiene" style="rhombus;whiteSpace=wrap;html=1;" vertex="1" parent="1">
          <mxGeometry x="330" y="150" width="60" height="50" as="geometry" />
        </mxCell>
        <mxCell id="3AJ0iTijDM6IZOLcM9im-37" value="" style="endArrow=none;html=1;rounded=0;" edge="1" parent="1">
          <mxGeometry width="50" height="50" relative="1" as="geometry">
            <mxPoint x="320" y="174.5" as="sourcePoint" />
            <mxPoint x="330" y="174.5" as="targetPoint" />
          </mxGeometry>
        </mxCell>
        <mxCell id="3AJ0iTijDM6IZOLcM9im-40" value="" style="endArrow=none;html=1;rounded=0;" edge="1" parent="1">
          <mxGeometry width="50" height="50" relative="1" as="geometry">
            <mxPoint x="390" y="174.5" as="sourcePoint" />
            <mxPoint x="410" y="174.5" as="targetPoint" />
          </mxGeometry>
        </mxCell>
      </root>
    </mxGraphModel>
  </diagram>
</mxfile>
